<?xml version="1.0" encoding="UTF-8"?>
<svg id="Camada_1" data-name="Camada 1" xmlns="http://www.w3.org/2000/svg" version="1.1" viewBox="0 0 595.3 595.3">
  <defs>
    <style>
      .cls-1 {
        fill: #232326;
        stroke-width: 0px;
      }
    </style>
  </defs>
  <path class="cls-1" d="M62,401.6c-1.1,2.6-2.7,5-4.8,7.2-2,2.2-4.5,4-7.5,5.5-3,1.5-6.4,2.5-10.3,3-4.2.5-7.8.3-10.7-.7-2.9-.9-5.3-2.3-7-4-1.8-1.8-3.1-3.8-3.9-6.2-.8-2.3-1.1-4.7-1-7l3.4-60.3c0-1.7,1.1-2.7,2.9-2.9l7.4-.9c.6,0,1.2,0,1.9,0,.7,0,1.3.3,1.9.6.6.3,1,.8,1.4,1.4.4.6.6,1.3.5,2.2l-3.2,57.4c0,1.6.4,3,1.3,4.2,1,1.2,2.7,1.7,5.1,1.4,2.9-.4,5-1.3,6.2-3,1.2-1.6,1.8-3.1,1.9-4.5l8.3-148.6c.1-1.8.8-3.4,2.2-4.8,1.4-1.4,2.9-2.1,4.6-2.3l6.9-.8c1.2-.1,1.9,0,2.3.4.4.4.5,1.2.4,2.4l-8.5,152.3c-.1,2.7-.8,5.3-1.9,7.9Z"/>
  <path class="cls-1" d="M93.6,394c1,1.3,2.8,1.8,5.5,1.5,2.6-.3,4.5-1.2,5.7-2.6,1.2-1.4,1.9-3,2-4.7l8.3-148.7c.1-1.8.8-3.4,2.1-4.8,1.3-1.4,2.8-2.1,4.5-2.3l6.9-.8c1.2-.1,2,0,2.4.4.4.4.6,1.2.5,2.4l-8.5,152.5c-.1,2.5-.8,5.1-1.9,7.7-1.1,2.6-2.7,5-4.7,7.2-2,2.2-4.5,4-7.5,5.6-3,1.6-6.4,2.6-10.4,3-3.8.5-7.1.3-10-.5-2.9-.8-5.3-2-7.2-3.7-1.9-1.7-3.3-3.7-4.2-6-.9-2.3-1.3-4.9-1.1-7.6l8.5-152.5c0-1.2.3-2,.7-2.5.4-.5,1.2-.8,2.4-.9l6.9-.8c1.7-.2,3.1.2,4.4,1.3,1.2,1.1,1.8,2.5,1.7,4.3l-8.3,148.7c0,1.5.4,2.8,1.3,4.1Z"/>
  <path class="cls-1" d="M157.4,403.2c-3.7.4-7,.3-9.8-.4-2.8-.7-5.2-1.8-7.1-3.5-1.9-1.6-3.3-3.6-4.2-6-.9-2.4-1.3-5.1-1.1-8l2.2-39.1c0-1.7,1.1-2.7,2.9-2.9l7.4-.9c.6,0,1.2,0,1.9,0,.7,0,1.3.3,1.9.6.6.3,1,.8,1.4,1.4.4.6.6,1.3.5,2.2l-2,36.2c0,1.7.4,3.2,1.5,4.3,1.1,1.2,2.9,1.6,5.3,1.3,2.5-.3,4.4-1.2,5.7-2.6,1.2-1.4,1.9-3,2-4.7.5-8.5.2-16.4-.9-23.7-1.1-7.3-2.6-14.3-4.5-21-1.9-6.7-4-13.3-6.3-19.8-2.3-6.5-4.4-13.3-6.3-20.3-1.9-7.1-3.4-14.5-4.4-22.4-1.1-7.9-1.3-16.6-.8-26,.2-2.9.9-5.7,2.1-8.3,1.2-2.6,2.9-5,5-7.1,2.1-2.1,4.7-3.9,7.6-5.3,3-1.4,6.2-2.3,9.7-2.8,3.6-.4,6.9-.3,9.7.4,2.9.7,5.3,1.9,7.3,3.5,2,1.6,3.5,3.6,4.4,6,1,2.4,1.3,5,1.2,8l-2.3,40.3c0,1.7-1.1,2.7-3,2.9l-7.3.9c-1.3.2-2.6,0-3.9-.7-1.3-.6-2-1.8-1.9-3.6l2.1-37.2c0-1.7-.4-3.2-1.5-4.4-1.1-1.2-2.9-1.6-5.4-1.3-2.5.3-4.4,1.2-5.7,2.7-1.3,1.5-1.9,3.1-2,4.7-.4,7.9-.1,15.3,1,22.2,1.1,6.9,2.6,13.6,4.6,20.2,1.9,6.6,4,13.1,6.3,19.7,2.3,6.5,4.3,13.4,6.2,20.6,1.9,7.2,3.4,14.9,4.4,23.2,1,8.2,1.3,17.3.7,27.2-.2,2.9-.9,5.7-2.1,8.4-1.2,2.7-2.9,5.1-5,7.2-2.1,2.1-4.7,3.8-7.7,5.2-3,1.4-6.3,2.3-9.9,2.7Z"/>
  <path class="cls-1" d="M242.4,217.9c1.9-.2,2.8.8,2.7,3v2.5c-.3,2.8-1.1,5.1-2.4,6.6-1.4,1.6-3.3,2.5-5.6,2.8l-7.4.9-8.7,155.8c-.1,2.4-1.4,3.8-3.7,4l-9.3,1.1c-1.3.2-2.1,0-2.6-.5-.5-.5-.7-1.4-.6-2.7l8.7-155.8-8.1,1c-5,.6-7.3-2-7-7.6v-2.5c.3-2.2,1.3-3.5,3.2-3.7l40.9-4.9Z"/>
  <path class="cls-1" d="M259.9,384.8c-.1,2.5-1.4,3.9-3.9,4.2l-9.1,1.1c-2.4.3-3.5-.8-3.3-3.3l9.2-163.6c.1-2,.8-3.6,2.2-5,1.4-1.3,2.9-2.1,4.6-2.3l6.9-.8c1.3-.2,2,0,2.4.4.3.4.4,1.1.4,2.3l-9.3,167.1Z"/>
  <path class="cls-1" d="M305.9,207.8c3.6-.4,6.8-.3,9.6.5,2.8.7,5.2,1.9,7.1,3.6,1.9,1.7,3.3,3.7,4.3,6,1,2.4,1.4,5,1.2,7.8l-3.1,55.1c0,1.7-1.1,2.7-2.9,2.9l-7.3.9c-1.3.2-2.6,0-3.9-.7-1.3-.6-2-1.8-1.9-3.5l2.9-52.1c0-1.7-.4-3.2-1.6-4.4-1.2-1.2-3-1.6-5.4-1.3-2.4.3-4.3,1.2-5.5,2.7-1.3,1.5-1.9,3.1-2,4.8l-7.6,136.3c0,1.7.4,3.2,1.5,4.3,1.1,1.2,2.9,1.6,5.4,1.3,2.7-.3,4.6-1.3,5.7-2.8,1.1-1.5,1.7-3.1,1.8-4.5l2.9-52c0-.9.3-1.6.8-2.3.5-.7,1-1.3,1.6-1.7s1.3-.8,2-1.1c.7-.3,1.4-.4,2-.5l7.3-.9c1.9-.2,2.9.5,2.8,2.1l-3.1,55c-.2,2.9-.9,5.7-2.1,8.4-1.2,2.7-2.9,5.1-5.1,7.2-2.2,2.1-4.7,3.8-7.7,5.2-3,1.4-6.3,2.3-9.9,2.7-3.6.4-6.8.3-9.6-.4-2.8-.7-5.2-1.8-7.1-3.5-1.9-1.6-3.3-3.6-4.3-6-1-2.4-1.3-5.1-1.2-8l7.7-137.5c.2-2.9.9-5.7,2.1-8.3,1.2-2.6,2.9-5,5.1-7.1,2.2-2.1,4.7-3.9,7.8-5.3,3-1.4,6.3-2.4,9.9-2.8Z"/>
  <path class="cls-1" d="M376.5,202c1.9-.2,2.8.8,2.7,3v2.5c-.3,2.8-1.1,4.9-2.4,6.6-1.4,1.6-3.3,2.6-5.6,2.9l-14,1.7-3.7,66.2,16.1-1.9c1.9-.2,2.8.7,2.7,2.9v2.6c-.3,2.8-1.1,4.9-2.5,6.6-1.4,1.6-3.3,2.6-5.6,2.9l-11.6,1.4-3.6,64.5,14-1.7c2.4-.3,4.1.2,5.4,1.5,1.2,1.3,1.8,3.3,1.6,6.2v2.5c-.3,2.2-1.3,3.5-3.2,3.7l-31.2,3.7c-1.6.2-2.6,0-3-.3-.4-.4-.6-1.2-.5-2.4l9.4-167.6c0-1.2.3-2,.7-2.5.4-.5,1.2-.8,2.4-.9l31.9-3.8Z"/>
  <path class="cls-1" d="M397,368.4c-.1,2.5-1.4,3.9-3.9,4.2l-9.1,1.1c-2.4.3-3.5-.8-3.3-3.3l9.2-163.6c.1-2,.8-3.6,2.2-5,1.4-1.3,2.9-2.1,4.6-2.3l6.9-.8c1.3-.2,2,0,2.4.4.3.4.4,1.1.4,2.3l-9.3,167.1Z"/>
  <path class="cls-1" d="M456.4,362c0,1.2-.3,2.1-.8,2.5-.4.5-1.3.8-2.4.9l-6.9.8c-1.7.2-3.1-.2-4.3-1.3-1.2-1.1-1.7-2.5-1.6-4.3l3.3-59.1c0-1.7-.4-3.2-1.5-4.4-1.1-1.2-2.9-1.6-5.4-1.3l-7.2.9-3.7,65.7c-.1,1.8-.8,3.4-2.2,4.8-1.4,1.4-2.9,2.1-4.6,2.3l-6.9.8c-1.2.1-1.9,0-2.3-.4-.4-.4-.5-1.2-.4-2.4l9.4-167.6c0-1.2.3-2,.7-2.5.4-.5,1.2-.8,2.4-.9l20.8-2.5c4-.5,7.5-.3,10.3.5,2.8.8,5.2,2.1,7,3.8,1.8,1.7,3.1,3.8,3.9,6.1.8,2.4,1.1,4.9,1,7.6l-3.2,57.5c-.4,7.8-3.4,13.7-8.9,17.8,5.2,1.8,7.6,5.8,7.2,12.1l-3.5,62.5ZM434.4,209.3l-4.1,73.1,7.8-.9c1.3-.2,2.3-.6,3.3-1.2.9-.7,1.6-1.5,2.2-2.4.6-1,1-2,1.2-3.1.3-1.1.4-2.2.5-3.3l3.2-57.2c0-1.7-.4-3.2-1.5-4.4-1.1-1.2-2.9-1.6-5.4-1.3l-7.2.9Z"/>
  <path class="cls-1" d="M514.5,355.2c0,1.1-.1,1.9-.4,2.4-.3.5-1.1.8-2.2.9l-7.7.9c-1.7.2-3.1-.2-4.3-1.2-1.2-1-1.7-2.4-1.7-4.3l-.2-23.4-14.1,1.7-2.8,23.7c-.2,1.9-.9,3.5-2.1,4.8-1.2,1.3-2.7,2-4.4,2.2l-7.7.9c-1.3.2-2,0-2.3-.4-.3-.4-.3-1.2-.2-2.3l23.2-168.9c.3-1.6.8-2.6,1.7-3.2.9-.5,2-.9,3.4-1.1l12.7-1.5c1.5-.2,2.6-.1,3.4.2.7.3,1.1,1.3,1.2,2.8l4.5,165.6ZM485.3,318.4l12.9-1.5-.5-105-12.3,106.5Z"/>
  <path class="cls-1" d="M546,356.8c-3.7.4-7,.3-9.8-.4-2.8-.7-5.2-1.8-7.1-3.5-1.9-1.6-3.3-3.6-4.2-6-.9-2.4-1.3-5.1-1.1-8l2.2-39.1c0-1.7,1.1-2.7,2.9-2.9l7.4-.9c.6,0,1.2,0,1.9,0,.7,0,1.3.3,1.9.6.6.3,1,.8,1.4,1.4.4.6.6,1.3.5,2.2l-2,36.2c0,1.7.4,3.2,1.5,4.3,1.1,1.2,2.9,1.6,5.3,1.3,2.5-.3,4.4-1.2,5.7-2.6,1.2-1.4,1.9-3,2-4.7.5-8.5.2-16.4-.9-23.7-1.1-7.3-2.6-14.3-4.5-21-1.9-6.7-4-13.3-6.3-19.8-2.3-6.5-4.4-13.3-6.3-20.3-1.9-7.1-3.4-14.5-4.4-22.4-1.1-7.9-1.3-16.6-.8-26,.2-2.9.9-5.7,2.1-8.3,1.2-2.6,2.9-5,5-7.1,2.1-2.1,4.7-3.9,7.6-5.3,3-1.4,6.2-2.3,9.7-2.8,3.6-.4,6.9-.3,9.7.4,2.9.7,5.3,1.9,7.3,3.5,2,1.6,3.5,3.6,4.4,6,1,2.4,1.3,5,1.2,8l-2.3,40.3c0,1.7-1.1,2.7-3,2.9l-7.3.9c-1.3.2-2.6,0-3.9-.7-1.3-.6-2-1.8-1.9-3.6l2.1-37.2c0-1.7-.4-3.2-1.5-4.4-1.1-1.2-2.9-1.6-5.4-1.3-2.5.3-4.4,1.2-5.7,2.7-1.3,1.5-1.9,3.1-2,4.7-.4,7.9-.1,15.3,1,22.2,1.1,6.9,2.6,13.6,4.6,20.2,1.9,6.6,4,13.1,6.3,19.7,2.3,6.5,4.3,13.4,6.2,20.6,1.9,7.2,3.4,15,4.4,23.2,1,8.2,1.3,17.3.7,27.2-.2,2.9-.9,5.7-2.1,8.4-1.2,2.7-2.9,5.1-5,7.2-2.1,2.1-4.7,3.8-7.7,5.2-3,1.4-6.3,2.3-9.9,2.7Z"/>
</svg>